<?xml version="1.0" encoding="UTF-8" standalone="no"?>
<svg
   xmlns:dc="http://purl.org/dc/elements/1.1/"
   xmlns:cc="http://creativecommons.org/ns#"
   xmlns:rdf="http://www.w3.org/1999/02/22-rdf-syntax-ns#"
   xmlns:svg="http://www.w3.org/2000/svg"
   xmlns="http://www.w3.org/2000/svg"
   xmlns:sodipodi="http://sodipodi.sourceforge.net/DTD/sodipodi-0.dtd"
   xmlns:inkscape="http://www.inkscape.org/namespaces/inkscape"
   version="1.1"
   x="0px"
   y="0px"
   viewBox="0 0 1000 1000"
   id="svg12"
   sodipodi:docname="viber_ico.svg"
   width="1000"
   height="1000"
   inkscape:version="0.92.1 r15371">
  <metadata
     id="metadata18">
    <rdf:RDF>
      <cc:Work
         rdf:about="">
        <dc:format>image/svg+xml</dc:format>
        <dc:type
           rdf:resource="http://purl.org/dc/dcmitype/StillImage" />
        <dc:title></dc:title>
      </cc:Work>
    </rdf:RDF>
  </metadata>
  <defs
     id="defs16" />
  <sodipodi:namedview
     pagecolor="#ffffff"
     bordercolor="#666666"
     borderopacity="1"
     objecttolerance="10"
     gridtolerance="10"
     guidetolerance="10"
     inkscape:pageopacity="0"
     inkscape:pageshadow="2"
     inkscape:window-width="1920"
     inkscape:window-height="1027"
     id="namedview14"
     showgrid="false"
     inkscape:zoom="0.472"
     inkscape:cx="210.71504"
     inkscape:cy="501.4352"
     inkscape:window-x="-8"
     inkscape:window-y="-8"
     inkscape:window-maximized="1"
     inkscape:current-layer="svg12" />
  <path
     style="fill:#675ca8;stroke-width:20.97115707;fill-opacity:1"
     d="m 265.19785,898.2427 c 0,-79.88846 -6.72434,-92.31071 -61.07385,-112.82537 C 105.91568,748.34784 66.018645,649.28269 66.125837,442.76513 66.23592,230.69078 107.39345,139.18533 229.75767,78.962743 399.68024,-4.6660504 707.26227,16.459207 830.5852,120.2286 905.16898,182.98672 945.80789,338.96261 930.77376,504.76164 909.6418,737.80845 828.43792,814.14546 579.46102,835.01878 c -128.28,10.75454 -151.39318,19.74193 -212.25232,82.53261 -37.56292,38.75512 -75.88202,70.46384 -85.15355,70.46384 -9.27151,0 -16.8573,-40.39765 -16.8573,-89.77253 z M 693.60863,682.4355 c 42.5682,-42.56819 41.77138,-49.32735 -12.64321,-107.24902 -46.07984,-49.04976 -122.17137,-66.2183 -122.17137,-27.56556 0,40.09115 -71.45833,20.63169 -129.92222,-35.38025 -63.05517,-60.4107 -73.99922,-108.81954 -33.70983,-149.10892 19.49706,-19.49705 15.47623,-38.00957 -17.9916,-82.83607 -48.65363,-65.16626 -107.17091,-74.71621 -139.89903,-22.83136 -50.53143,80.10894 134.8954,339.85419 300.55152,421.01157 91.4241,44.78999 114.37208,45.37326 155.78574,3.95961 z M 741.3765,376.65184 C 726.17629,263.32573 654.34882,191.49826 541.02272,176.29805 c -57.71134,-7.74071 -87.08446,-3.67566 -87.08446,12.05194 0,13.05282 29.03699,23.7324 64.52664,23.7324 87.67705,0 187.12725,99.4502 187.12725,187.12725 0,35.48966 10.67958,64.52664 23.73241,64.52664 15.7276,0 19.79264,-29.37312 12.05194,-87.08444 z m -56.7555,12.73215 c 0,-29.35962 -23.16359,-76.54472 -51.47465,-104.85579 -28.31107,-28.31106 -75.49617,-51.47465 -104.85579,-51.47465 -74.68784,0 -66.54499,29.39337 14.77512,53.33391 51.24703,15.0871 73.13432,36.97438 88.2214,88.2214 23.94056,81.32012 53.33392,89.46296 53.33392,14.77513 z m -62.91348,2.45119 c 0,-16.47735 -14.8296,-44.78841 -32.95468,-62.91347 -30.33253,-30.33255 -92.87226,-45.96129 -92.87226,-23.20889 0,15.51158 92.73693,111.42252 110.09857,113.86682 8.6506,1.21779 15.72837,-11.26713 15.72837,-27.74446 z"
     id="path4506"
     inkscape:connector-curvature="0" />
</svg>
